<mxfile host="app.diagrams.net" modified="2024-05-11T13:54:23.462Z" agent="Mozilla/5.0 (Macintosh; Intel Mac OS X 10_15_7) AppleWebKit/537.36 (KHTML, like Gecko) Chrome/124.0.0.0 Safari/537.36" etag="cEJBTwFnc1SjRn8Q1Ovi" version="24.4.0" type="github">
  <diagram name="第 1 页" id="gUsOO3jwibenItTmJPaC">
    <mxGraphModel dx="1434" dy="786" grid="1" gridSize="10" guides="1" tooltips="1" connect="1" arrows="1" fold="1" page="1" pageScale="1" pageWidth="827" pageHeight="1169" math="0" shadow="0">
      <root>
        <mxCell id="0" />
        <mxCell id="1" parent="0" />
        <mxCell id="UVOPSV-7_Bqcha7cGrSc-1" value="" style="rounded=0;whiteSpace=wrap;html=1;fillColor=#000F3B;" vertex="1" parent="1">
          <mxGeometry x="80" y="510" width="390" height="120" as="geometry" />
        </mxCell>
        <mxCell id="UVOPSV-7_Bqcha7cGrSc-2" value="" style="whiteSpace=wrap;html=1;aspect=fixed;fillColor=#330000;" vertex="1" parent="1">
          <mxGeometry x="100" y="540" width="50" height="50" as="geometry" />
        </mxCell>
        <mxCell id="UVOPSV-7_Bqcha7cGrSc-3" value="" style="whiteSpace=wrap;html=1;aspect=fixed;fillColor=#330000;" vertex="1" parent="1">
          <mxGeometry x="150" y="540" width="50" height="50" as="geometry" />
        </mxCell>
        <mxCell id="UVOPSV-7_Bqcha7cGrSc-4" value="" style="whiteSpace=wrap;html=1;aspect=fixed;fillColor=#330000;" vertex="1" parent="1">
          <mxGeometry x="200" y="540" width="50" height="50" as="geometry" />
        </mxCell>
        <mxCell id="UVOPSV-7_Bqcha7cGrSc-5" value="" style="whiteSpace=wrap;html=1;aspect=fixed;fillColor=#330000;" vertex="1" parent="1">
          <mxGeometry x="250" y="540" width="50" height="50" as="geometry" />
        </mxCell>
        <mxCell id="UVOPSV-7_Bqcha7cGrSc-8" value="" style="whiteSpace=wrap;html=1;aspect=fixed;fillColor=#33001A;" vertex="1" parent="1">
          <mxGeometry x="400" y="540" width="50" height="50" as="geometry" />
        </mxCell>
        <mxCell id="UVOPSV-7_Bqcha7cGrSc-18" value="" style="rounded=0;whiteSpace=wrap;html=1;fillColor=#647687;fontColor=#ffffff;strokeColor=#314354;" vertex="1" parent="1">
          <mxGeometry x="300" y="540" width="100" height="50" as="geometry" />
        </mxCell>
        <mxCell id="UVOPSV-7_Bqcha7cGrSc-19" value="......" style="text;html=1;align=center;verticalAlign=middle;whiteSpace=wrap;rounded=0;" vertex="1" parent="1">
          <mxGeometry x="320" y="550" width="60" height="30" as="geometry" />
        </mxCell>
        <mxCell id="UVOPSV-7_Bqcha7cGrSc-21" value="id=0" style="text;html=1;align=center;verticalAlign=middle;whiteSpace=wrap;rounded=0;fontColor=#FF6666;" vertex="1" parent="1">
          <mxGeometry x="95" y="600" width="60" height="30" as="geometry" />
        </mxCell>
        <mxCell id="UVOPSV-7_Bqcha7cGrSc-22" value="id=1" style="text;html=1;align=center;verticalAlign=middle;whiteSpace=wrap;rounded=0;fontColor=#FF6666;" vertex="1" parent="1">
          <mxGeometry x="140" y="600" width="60" height="30" as="geometry" />
        </mxCell>
        <mxCell id="UVOPSV-7_Bqcha7cGrSc-23" value="id=2" style="text;html=1;align=center;verticalAlign=middle;whiteSpace=wrap;rounded=0;fontColor=#FF6666;" vertex="1" parent="1">
          <mxGeometry x="190" y="600" width="60" height="30" as="geometry" />
        </mxCell>
        <mxCell id="UVOPSV-7_Bqcha7cGrSc-24" value="id=3" style="text;html=1;align=center;verticalAlign=middle;whiteSpace=wrap;rounded=0;fontColor=#FF6666;" vertex="1" parent="1">
          <mxGeometry x="240" y="600" width="60" height="30" as="geometry" />
        </mxCell>
        <mxCell id="UVOPSV-7_Bqcha7cGrSc-25" value="id=49" style="text;html=1;align=center;verticalAlign=middle;whiteSpace=wrap;rounded=0;fontColor=#FF6666;" vertex="1" parent="1">
          <mxGeometry x="390" y="600" width="60" height="30" as="geometry" />
        </mxCell>
        <mxCell id="UVOPSV-7_Bqcha7cGrSc-26" value="Image&amp;nbsp;&lt;span style=&quot;background-color: initial;&quot;&gt;Pool&lt;/span&gt;" style="text;html=1;align=center;verticalAlign=middle;whiteSpace=wrap;rounded=0;" vertex="1" parent="1">
          <mxGeometry x="195" y="640" width="160" height="30" as="geometry" />
        </mxCell>
        <mxCell id="UVOPSV-7_Bqcha7cGrSc-42" value="" style="shape=trapezoid;perimeter=trapezoidPerimeter;whiteSpace=wrap;html=1;fixedSize=1;direction=south;fillColor=#663300;" vertex="1" parent="1">
          <mxGeometry x="135" y="370" width="40" height="100" as="geometry" />
        </mxCell>
        <mxCell id="UVOPSV-7_Bqcha7cGrSc-49" style="edgeStyle=orthogonalEdgeStyle;rounded=0;orthogonalLoop=1;jettySize=auto;html=1;exitX=0.5;exitY=1;exitDx=0;exitDy=0;entryX=0;entryY=0.5;entryDx=0;entryDy=0;" edge="1" parent="1" source="UVOPSV-7_Bqcha7cGrSc-43" target="UVOPSV-7_Bqcha7cGrSc-46">
          <mxGeometry relative="1" as="geometry" />
        </mxCell>
        <mxCell id="UVOPSV-7_Bqcha7cGrSc-43" value="" style="shape=trapezoid;perimeter=trapezoidPerimeter;whiteSpace=wrap;html=1;fixedSize=1;direction=north;fillColor=#663300;" vertex="1" parent="1">
          <mxGeometry x="175" y="370" width="40" height="100" as="geometry" />
        </mxCell>
        <mxCell id="UVOPSV-7_Bqcha7cGrSc-44" value="" style="whiteSpace=wrap;html=1;aspect=fixed;fillColor=#647687;fontColor=#ffffff;strokeColor=#314354;" vertex="1" parent="1">
          <mxGeometry x="155" y="400" width="40" height="40" as="geometry" />
        </mxCell>
        <mxCell id="UVOPSV-7_Bqcha7cGrSc-45" value="G" style="text;html=1;align=center;verticalAlign=middle;whiteSpace=wrap;rounded=0;fillColor=default;opacity=0;" vertex="1" parent="1">
          <mxGeometry x="145" y="407.5" width="60" height="25" as="geometry" />
        </mxCell>
        <mxCell id="UVOPSV-7_Bqcha7cGrSc-50" style="edgeStyle=orthogonalEdgeStyle;rounded=0;orthogonalLoop=1;jettySize=auto;html=1;exitX=1;exitY=0.5;exitDx=0;exitDy=0;entryX=0.5;entryY=1;entryDx=0;entryDy=0;" edge="1" parent="1" source="UVOPSV-7_Bqcha7cGrSc-46" target="UVOPSV-7_Bqcha7cGrSc-47">
          <mxGeometry relative="1" as="geometry" />
        </mxCell>
        <mxCell id="UVOPSV-7_Bqcha7cGrSc-46" value="" style="whiteSpace=wrap;html=1;aspect=fixed;fillColor=#6d8764;fontColor=#ffffff;strokeColor=#3A5431;" vertex="1" parent="1">
          <mxGeometry x="250" y="395" width="50" height="50" as="geometry" />
        </mxCell>
        <mxCell id="UVOPSV-7_Bqcha7cGrSc-47" value="" style="shape=trapezoid;perimeter=trapezoidPerimeter;whiteSpace=wrap;html=1;fixedSize=1;direction=south;fillColor=#b1ddf0;strokeColor=#10739e;" vertex="1" parent="1">
          <mxGeometry x="335" y="370" width="80" height="110" as="geometry" />
        </mxCell>
        <mxCell id="UVOPSV-7_Bqcha7cGrSc-48" value="" style="whiteSpace=wrap;html=1;aspect=fixed;fillColor=#647687;fontColor=#ffffff;strokeColor=#314354;" vertex="1" parent="1">
          <mxGeometry x="350" y="405" width="40" height="40" as="geometry" />
        </mxCell>
        <mxCell id="UVOPSV-7_Bqcha7cGrSc-51" value="fake" style="text;html=1;align=center;verticalAlign=middle;whiteSpace=wrap;rounded=0;opacity=0;" vertex="1" parent="1">
          <mxGeometry x="245" y="405" width="60" height="30" as="geometry" />
        </mxCell>
        <mxCell id="UVOPSV-7_Bqcha7cGrSc-52" value="D" style="text;html=1;align=center;verticalAlign=middle;whiteSpace=wrap;rounded=0;opacity=0;" vertex="1" parent="1">
          <mxGeometry x="340" y="410" width="60" height="30" as="geometry" />
        </mxCell>
        <mxCell id="UVOPSV-7_Bqcha7cGrSc-67" value="" style="rounded=0;whiteSpace=wrap;html=1;fillColor=#000F3B;" vertex="1" parent="1">
          <mxGeometry x="540" y="510" width="390" height="120" as="geometry" />
        </mxCell>
        <mxCell id="UVOPSV-7_Bqcha7cGrSc-68" value="" style="whiteSpace=wrap;html=1;aspect=fixed;fillColor=#330000;" vertex="1" parent="1">
          <mxGeometry x="560" y="540" width="50" height="50" as="geometry" />
        </mxCell>
        <mxCell id="UVOPSV-7_Bqcha7cGrSc-69" value="" style="whiteSpace=wrap;html=1;aspect=fixed;fillColor=#330000;" vertex="1" parent="1">
          <mxGeometry x="610" y="540" width="50" height="50" as="geometry" />
        </mxCell>
        <mxCell id="UVOPSV-7_Bqcha7cGrSc-70" value="" style="whiteSpace=wrap;html=1;aspect=fixed;fillColor=#330000;" vertex="1" parent="1">
          <mxGeometry x="660" y="540" width="50" height="50" as="geometry" />
        </mxCell>
        <mxCell id="UVOPSV-7_Bqcha7cGrSc-71" value="" style="whiteSpace=wrap;html=1;aspect=fixed;fillColor=#6d8764;fontColor=#ffffff;strokeColor=#3A5431;" vertex="1" parent="1">
          <mxGeometry x="710" y="540" width="50" height="50" as="geometry" />
        </mxCell>
        <mxCell id="UVOPSV-7_Bqcha7cGrSc-72" value="" style="whiteSpace=wrap;html=1;aspect=fixed;fillColor=#33001A;" vertex="1" parent="1">
          <mxGeometry x="860" y="540" width="50" height="50" as="geometry" />
        </mxCell>
        <mxCell id="UVOPSV-7_Bqcha7cGrSc-73" value="" style="rounded=0;whiteSpace=wrap;html=1;fillColor=#647687;fontColor=#ffffff;strokeColor=#314354;" vertex="1" parent="1">
          <mxGeometry x="760" y="540" width="100" height="50" as="geometry" />
        </mxCell>
        <mxCell id="UVOPSV-7_Bqcha7cGrSc-74" value="......" style="text;html=1;align=center;verticalAlign=middle;whiteSpace=wrap;rounded=0;" vertex="1" parent="1">
          <mxGeometry x="780" y="550" width="60" height="30" as="geometry" />
        </mxCell>
        <mxCell id="UVOPSV-7_Bqcha7cGrSc-75" value="id=0" style="text;html=1;align=center;verticalAlign=middle;whiteSpace=wrap;rounded=0;fontColor=#FF6666;" vertex="1" parent="1">
          <mxGeometry x="555" y="600" width="60" height="30" as="geometry" />
        </mxCell>
        <mxCell id="UVOPSV-7_Bqcha7cGrSc-76" value="id=1" style="text;html=1;align=center;verticalAlign=middle;whiteSpace=wrap;rounded=0;fontColor=#FF6666;" vertex="1" parent="1">
          <mxGeometry x="600" y="600" width="60" height="30" as="geometry" />
        </mxCell>
        <mxCell id="UVOPSV-7_Bqcha7cGrSc-77" value="id=2" style="text;html=1;align=center;verticalAlign=middle;whiteSpace=wrap;rounded=0;fontColor=#FF6666;" vertex="1" parent="1">
          <mxGeometry x="650" y="600" width="60" height="30" as="geometry" />
        </mxCell>
        <mxCell id="UVOPSV-7_Bqcha7cGrSc-78" value="id=3" style="text;html=1;align=center;verticalAlign=middle;whiteSpace=wrap;rounded=0;fontColor=#FF6666;" vertex="1" parent="1">
          <mxGeometry x="700" y="600" width="60" height="30" as="geometry" />
        </mxCell>
        <mxCell id="UVOPSV-7_Bqcha7cGrSc-79" value="id=49" style="text;html=1;align=center;verticalAlign=middle;whiteSpace=wrap;rounded=0;fontColor=#FF6666;" vertex="1" parent="1">
          <mxGeometry x="850" y="600" width="60" height="30" as="geometry" />
        </mxCell>
        <mxCell id="UVOPSV-7_Bqcha7cGrSc-80" value="Image&amp;nbsp;&lt;span style=&quot;background-color: initial;&quot;&gt;Pool&lt;/span&gt;" style="text;html=1;align=center;verticalAlign=middle;whiteSpace=wrap;rounded=0;" vertex="1" parent="1">
          <mxGeometry x="655" y="640" width="160" height="30" as="geometry" />
        </mxCell>
        <mxCell id="UVOPSV-7_Bqcha7cGrSc-81" value="" style="shape=trapezoid;perimeter=trapezoidPerimeter;whiteSpace=wrap;html=1;fixedSize=1;direction=south;fillColor=#663300;" vertex="1" parent="1">
          <mxGeometry x="595" y="370" width="40" height="100" as="geometry" />
        </mxCell>
        <mxCell id="UVOPSV-7_Bqcha7cGrSc-82" style="edgeStyle=orthogonalEdgeStyle;rounded=0;orthogonalLoop=1;jettySize=auto;html=1;exitX=0.5;exitY=1;exitDx=0;exitDy=0;entryX=0;entryY=0.5;entryDx=0;entryDy=0;" edge="1" parent="1" source="UVOPSV-7_Bqcha7cGrSc-83" target="UVOPSV-7_Bqcha7cGrSc-87">
          <mxGeometry relative="1" as="geometry" />
        </mxCell>
        <mxCell id="UVOPSV-7_Bqcha7cGrSc-83" value="" style="shape=trapezoid;perimeter=trapezoidPerimeter;whiteSpace=wrap;html=1;fixedSize=1;direction=north;fillColor=#663300;" vertex="1" parent="1">
          <mxGeometry x="635" y="370" width="40" height="100" as="geometry" />
        </mxCell>
        <mxCell id="UVOPSV-7_Bqcha7cGrSc-84" value="" style="whiteSpace=wrap;html=1;aspect=fixed;fillColor=#647687;fontColor=#ffffff;strokeColor=#314354;" vertex="1" parent="1">
          <mxGeometry x="615" y="400" width="40" height="40" as="geometry" />
        </mxCell>
        <mxCell id="UVOPSV-7_Bqcha7cGrSc-85" value="G" style="text;html=1;align=center;verticalAlign=middle;whiteSpace=wrap;rounded=0;fillColor=default;opacity=0;" vertex="1" parent="1">
          <mxGeometry x="605" y="407.5" width="60" height="25" as="geometry" />
        </mxCell>
        <mxCell id="UVOPSV-7_Bqcha7cGrSc-86" style="edgeStyle=orthogonalEdgeStyle;rounded=0;orthogonalLoop=1;jettySize=auto;html=1;exitX=1;exitY=0.5;exitDx=0;exitDy=0;entryX=0.5;entryY=1;entryDx=0;entryDy=0;" edge="1" parent="1" source="UVOPSV-7_Bqcha7cGrSc-87" target="UVOPSV-7_Bqcha7cGrSc-88">
          <mxGeometry relative="1" as="geometry" />
        </mxCell>
        <mxCell id="UVOPSV-7_Bqcha7cGrSc-87" value="" style="whiteSpace=wrap;html=1;aspect=fixed;fillColor=#6d8764;fontColor=#ffffff;strokeColor=#3A5431;" vertex="1" parent="1">
          <mxGeometry x="710" y="395" width="50" height="50" as="geometry" />
        </mxCell>
        <mxCell id="UVOPSV-7_Bqcha7cGrSc-88" value="" style="shape=trapezoid;perimeter=trapezoidPerimeter;whiteSpace=wrap;html=1;fixedSize=1;direction=south;fillColor=#b1ddf0;strokeColor=#10739e;" vertex="1" parent="1">
          <mxGeometry x="795" y="370" width="80" height="110" as="geometry" />
        </mxCell>
        <mxCell id="UVOPSV-7_Bqcha7cGrSc-89" value="" style="whiteSpace=wrap;html=1;aspect=fixed;fillColor=#647687;fontColor=#ffffff;strokeColor=#314354;" vertex="1" parent="1">
          <mxGeometry x="810" y="405" width="40" height="40" as="geometry" />
        </mxCell>
        <mxCell id="UVOPSV-7_Bqcha7cGrSc-90" value="stored" style="text;html=1;align=center;verticalAlign=middle;whiteSpace=wrap;rounded=0;opacity=0;" vertex="1" parent="1">
          <mxGeometry x="705" y="405" width="60" height="30" as="geometry" />
        </mxCell>
        <mxCell id="UVOPSV-7_Bqcha7cGrSc-91" value="D" style="text;html=1;align=center;verticalAlign=middle;whiteSpace=wrap;rounded=0;opacity=0;" vertex="1" parent="1">
          <mxGeometry x="800" y="410" width="60" height="30" as="geometry" />
        </mxCell>
        <mxCell id="UVOPSV-7_Bqcha7cGrSc-93" value="" style="shape=flexArrow;endArrow=classic;startArrow=classic;html=1;rounded=0;exitX=0.5;exitY=0;exitDx=0;exitDy=0;entryX=0.5;entryY=1;entryDx=0;entryDy=0;strokeColor=#6D1F00;fillColor=#a0522d;" edge="1" parent="1" source="UVOPSV-7_Bqcha7cGrSc-71" target="UVOPSV-7_Bqcha7cGrSc-87">
          <mxGeometry width="100" height="100" relative="1" as="geometry">
            <mxPoint x="410" y="470" as="sourcePoint" />
            <mxPoint x="510" y="370" as="targetPoint" />
          </mxGeometry>
        </mxCell>
        <mxCell id="UVOPSV-7_Bqcha7cGrSc-94" value="fake" style="text;html=1;align=center;verticalAlign=middle;whiteSpace=wrap;rounded=0;" vertex="1" parent="1">
          <mxGeometry x="705" y="550" width="60" height="30" as="geometry" />
        </mxCell>
      </root>
    </mxGraphModel>
  </diagram>
</mxfile>
